<?xml version="1.0" encoding="utf-8"?>
<!-- Generator: Adobe Illustrator 14.0.0, SVG Export Plug-In . SVG Version: 6.00 Build 43363)  -->
<!DOCTYPE svg PUBLIC "-//W3C//DTD SVG 1.1//EN" "http://www.w3.org/Graphics/SVG/1.1/DTD/svg11.dtd">
<svg version="1.1" id="Layer_1" xmlns="http://www.w3.org/2000/svg" xmlns:xlink="http://www.w3.org/1999/xlink" x="0px" y="0px"
	 width="156.695px" height="167.393px" viewBox="0 0 156.695 167.393" enable-background="new 0 0 156.695 167.393"
	 xml:space="preserve">
<path d="M156.359,85.143c-1.573,14.916-6.573,28.916-12.676,43.287c-1.446,2.913-3.047,5.708-4.789,8.365
	c-12.192,18.611-31.298,30.597-52.775,30.597c-12.273,0-23.771-3.913-33.648-10.74c-2.469-1.707-4.837-3.596-7.089-5.651
	c-4.719-4.588-8.814-9.778-12.259-15.403c-1.723-2.813-3.282-5.733-4.74-8.753c-2.325-2.973-4.484-6.012-6.449-9.11
	c-1.965-3.1-3.737-6.257-5.287-9.468c-1.356-2.526-2.607-5.111-3.737-7.744C-2.215,77.059-4.215,50.059,7.785,25.059
	c5-10,16-16,27.835-19.154c3.437-1.42,6.844-2.578,10.272-3.476c34.294-8.984,71.312,7.943,93.407,34.513
	c1.896,2.054,3.682,4.186,5.332,6.396c6.6,8.849,11.047,18.976,11.94,30.23C156.783,77.278,156.733,81.125,156.359,85.143z"/>
</svg>
