<?xml version="1.0" encoding="utf-8"?>
<!-- Generator: Adobe Illustrator 14.0.0, SVG Export Plug-In . SVG Version: 6.00 Build 43363)  -->
<!DOCTYPE svg PUBLIC "-//W3C//DTD SVG 1.1//EN" "http://www.w3.org/Graphics/SVG/1.1/DTD/svg11.dtd">
<svg version="1.1" id="Layer_1" xmlns="http://www.w3.org/2000/svg" xmlns:xlink="http://www.w3.org/1999/xlink" x="0px" y="0px"
	 width="135.604px" height="111.223px" viewBox="0 0 135.604 111.223" enable-background="new 0 0 135.604 111.223"
	 xml:space="preserve">
<g>
	<path fill="none" stroke="#000000" d="M24.531,39.943c0.527,0.233,1.38,0.529,2.008,0.746c0.115,0.04,0.23,0.08,0.343,0.119
		c-0.453-0.508-0.97-1.083-1.201-1.304C25.337,39.539,24.952,39.686,24.531,39.943L24.531,39.943z M29.421,92.269
		c0.163,0,0.317,0.08,0.411,0.215c6.589,9.513,15.792,20.431,28.571,20.431c11.85,0,20.458-10.404,26.743-18
		c0.098-0.118,0.246-0.186,0.398-0.182c0.387,0.01,0.506,0.172,1.834,2.475c0.41,0.712,0.953,1.655,1.197,1.992
		c18.393-0.133,30.688-18.29,31.959-35.846c0.016-0.227,0.184-0.414,0.408-0.455c6.051-1.119,14.574-5.064,14.574-10.335
		c-0.002-2.735-3.896-4.824-7.027-6.504c-1.146-0.614-2.23-1.195-3.051-1.764c-0.199-0.137-0.271-0.397-0.172-0.617
		c0.463-1.016,1.701-2.212,3.012-3.477c1.727-1.666,3.682-3.553,3.682-4.909c0-8.521-10.33-12.665-16.488-14.376
		c-0.059-0.018-0.115-0.044-0.164-0.08c-0.967-0.715-1.805-2.088-2.693-3.542c-1.277-2.093-2.6-4.257-4.18-4.257
		c-0.719,0-2.549,1.377-3.887,2.383c-1.174,0.884-2.189,1.647-2.83,1.861c-0.141,0.047-0.291,0.029-0.416-0.046
		s-0.211-0.202-0.236-0.346C99.622,8.318,94.765-1.692,85.831-1.692c-7.57,0-11.928,8.926-14.545,15.641
		c-0.051,0.132-0.156,0.236-0.289,0.286c-1.139,0.425-2.781-0.007-4.311-0.483c-1.492-0.467-3.047-0.87-3.839-0.358
		c-0.172,0.11-0.395,0.106-0.563-0.013c-0.689-0.494-1.485-0.734-2.433-0.734c-1.389,0-2.929,0.501-4.559,1.031
		c-1.798,0.584-3.658,1.188-5.526,1.188c-11.121,0-22.614,6.326-23.244,16.967c0.585-0.33,1.132-0.492,1.656-0.492
		c0.297,0,0.371,0.053,1.998,1.878c0.433,0.485,0.863,0.97,1.164,1.286c0.25,0.144,0.512,0.349,0.539,0.669
		c0.012,0.144-0.038,0.284-0.137,0.388c-0.099,0.104-0.241,0.164-0.381,0.154c-0.215-0.008-0.36-0.125-0.635-0.406
		c-0.465-0.238-1.333-0.539-2.173-0.83c-1.331-0.461-2.125-0.752-2.57-1.031c-0.961,0.824-1.939,1.979-2.888,3.1
		c-1.135,1.342-2.208,2.607-3.161,3.178c-0.209,0.127-0.482,0.08-0.64-0.109c-0.665-0.795-1.352-1.973-2.08-3.219
		c-1.584-2.712-3.555-6.088-5.797-6.088c-5.833,0-8.491,7.193-8.491,13.876c0,1.538-0.744,2.921-1.4,4.142
		c-0.939,1.744-1.423,2.777-0.439,3.702c0.18,0.169,0.209,0.444,0.069,0.648c-1.751,2.536-1.009,5.642-0.223,8.929
		c0.479,2.005,0.975,4.078,0.975,6.198c0,14.161,8.75,28.808,23.4,28.857c0.316-0.207,1.175-1.31,1.751-2.049
		c1.33-1.708,1.839-2.309,2.325-2.342C29.398,92.269,29.41,92.269,29.421,92.269L29.421,92.269z"/>
</g>
</svg>
