<?xml version="1.0" encoding="utf-8"?>
<!-- Generator: Adobe Illustrator 14.0.0, SVG Export Plug-In . SVG Version: 6.00 Build 43363)  -->
<!DOCTYPE svg PUBLIC "-//W3C//DTD SVG 1.1//EN" "http://www.w3.org/Graphics/SVG/1.1/DTD/svg11.dtd">
<svg version="1.1" id="Layer_1" xmlns="http://www.w3.org/2000/svg" xmlns:xlink="http://www.w3.org/1999/xlink" x="0px" y="0px"
	 width="86.813px" height="89px" viewBox="0 0 86.813 89" enable-background="new 0 0 86.813 89" xml:space="preserve">
<path d="M86.719,44.357c-0.659,9.728-3.817,17.623-8.028,26.044c-2.566,4.935-6.538,9.425-11.251,12.639
	c-1.57,1.071-3.225,2.001-4.936,2.757c-1.906,1.514-4.178,2.139-6.496,2.451c-1.159,0.156-2.332,0.232-3.478,0.307
	c-15.285,2.319-32.153-4.627-43.124-15.83c-1.372-1.399-2.651-2.867-3.824-4.393C-3.42,53.559-0.261,33.031,6.099,17.459
	c0.844-1.605,1.779-3.109,2.861-4.508c7.568-9.79,22.307-14.395,34.464-12.553c20.001,2.631,40.002,16.843,43.242,37.86
	C86.838,40.221,86.865,42.253,86.719,44.357z"/>
</svg>
