<?xml version="1.0" encoding="utf-8"?>
<!-- Generator: Adobe Illustrator 13.0.0, SVG Export Plug-In . SVG Version: 6.00 Build 14948)  -->
<!DOCTYPE svg PUBLIC "-//W3C//DTD SVG 1.0//EN" "http://www.w3.org/TR/2001/REC-SVG-20010904/DTD/svg10.dtd">
<svg version="1.0" id="Layer_1" xmlns="http://www.w3.org/2000/svg" xmlns:xlink="http://www.w3.org/1999/xlink" x="0px" y="0px"
	 width="51.59px" height="145.326px" viewBox="0 0 51.59 145.326" enable-background="new 0 0 51.59 145.326" xml:space="preserve">
<g>
	<g id="XMLID_1_">
		<g>
		</g>
		<g>
			<path fill="none" stroke="#000000" d="M45.72,62.322c1.25-4.82,2.34-12.01,2.35-18.88c-0.02-3.87-0.31-7.58-1.47-11.02
				c0.36,5.04-0.24,10.29-1.96,15.44c-1.97,7.89-3.93,16.21-4.49,24.68c1.33-1.62,2.82-3.489,4.05-5.899
				C44.88,65.272,45.28,63.961,45.72,62.322z"/>
			<path fill="none" stroke="#000000" d="M25.86,27.812c-0.38,2.51-1,4.93-1.97,7.37c-1.15,2.85-2.12,4.3-3.41,5.73
				c-1.29,1.42-3.13,2.89-5.8,5.06c-2.11,1.72-4.57,3.82-6.86,6.31c-2.27,2.5-4.43,5.38-5.7,8.97c-1.25,3.601-1.61,7.41-1.62,11.23
				c0.01,7.22,1.4,14.62,2.52,19.99c2.12,10.06,5.86,19.489,10.06,28.38c1.41,2.939,2.52,6.5,2.49,9.13
				c-0.07,2.399-0.54,3.68-2.16,5.07c-2.37,1.909-2.73,5.38-0.81,7.739c1.08,1.34,2.67,2.03,4.27,2.03c0.24,0,0.48-0.01,0.71-0.04
				c1.74,0.22,3.55-0.39,4.81-1.79c1.64-1.86,4.12-2.96,7.74-4.149c3.529-1.23,8.08-2.41,12.27-5.921c3.16-2.71,5.25-6.18,6.63-9.76
				c1.38-3.6,2.051-7.359,2.061-10.939v-0.021c0.03-6.859-2.53-12.46-5.66-16.81c-3.14-4.4-6.74-7.91-9.74-11.681
				c-4.3-5.449-5.55-10.939-5.59-18.199c0-0.851,0.021-1.721,0.05-2.62c0.01-0.23,0.03-0.45,0.04-0.67
				c-4.66-9.17-4.189-22.07-2.31-34.101c1.04-6.6,2.49-12.94,3.76-18.26c0.61-3.06,0.99-6.21,1.1-9.35
				c-0.46,0.01-0.909,0.04-1.35,0.1l-4.47,0.65l-0.24,4.51c-0.3,5.78-0.06,11.02-0.25,15.84C26.34,23.762,26.17,25.812,25.86,27.812
				z"/>
		</g>
	</g>
</g>
</svg>
