<?xml version="1.0" encoding="utf-8"?>
<!-- Generator: Adobe Illustrator 14.0.0, SVG Export Plug-In . SVG Version: 6.00 Build 43363)  -->
<!DOCTYPE svg PUBLIC "-//W3C//DTD SVG 1.1//EN" "http://www.w3.org/Graphics/SVG/1.1/DTD/svg11.dtd">
<svg version="1.1" id="Layer_1" xmlns="http://www.w3.org/2000/svg" xmlns:xlink="http://www.w3.org/1999/xlink" x="0px" y="0px"
	 width="44.723px" height="57.406px" viewBox="0 0 44.723 57.406" enable-background="new 0 0 44.723 57.406" xml:space="preserve">
<path fill="none" stroke="#000000" d="M38.075,7.378c-0.188-0.625-0.844-0.977-1.469-0.791c-7.253,2.176-7.036,9.212-6.863,14.865
	c0.101,3.261,0.195,6.34-0.957,8.154c-0.021,0.033-0.042,0.068-0.061,0.104c-0.677,1.354-3.61,1.93-6.807,2.202
	c-2.64-1.596-5.472-2.563-8.193-1.821c-0.044,0.013-0.086,0.027-0.127,0.043c-1.267,0.507-2.639,1.58-4.007,2.747
	c-2.142,1.101-3.519,2.252-4.393,3.513c-0.302,0.199-0.488,0.519-0.522,0.864c-1.099,2.181-0.968,4.698-0.799,7.818
	c0.072,1.354,0.155,2.892,0.155,4.611c0,0.65,0.528,1.179,1.179,1.179s1.179-0.528,1.179-1.179c0-1.784-0.083-3.353-0.158-4.737
	c-0.167-3.109-0.269-5.155,0.658-6.821c0.934-0.584,2.006-1.518,3.133-2.503c0.267-0.233,0.541-0.472,0.815-0.708
	c1.238-0.258,3.384-0.32,5.656-0.385c1.593-0.045,3.242-0.094,4.838-0.206c2.22,1.454,4.35,3.386,6.057,4.939
	c0.601,0.545,1.154,1.049,1.652,1.479c0.884,1.13,2.101,1.939,3.278,2.726c1.098,0.732,2.137,1.423,2.781,2.286
	c0.233,0.31,0.586,0.473,0.944,0.473c0.247,0,0.494-0.078,0.706-0.238c0.52-0.392,0.626-1.13,0.236-1.65
	c-0.889-1.187-2.146-2.024-3.362-2.833c-1.097-0.732-2.133-1.423-2.779-2.286c-0.052-0.068-0.112-0.132-0.177-0.187
	c-0.506-0.435-1.074-0.952-1.694-1.516c-1.216-1.106-2.626-2.388-4.156-3.584c2.798-0.472,5.071-1.357,5.987-3.113
	c1.511-2.422,1.406-5.833,1.296-9.443c-0.174-5.594-0.337-10.878,5.184-12.534C37.908,8.659,38.262,8.002,38.075,7.378z"/>
</svg>
