<?xml version="1.0" encoding="utf-8"?>
<!-- Generator: Adobe Illustrator 13.0.0, SVG Export Plug-In . SVG Version: 6.00 Build 14948)  -->
<!DOCTYPE svg PUBLIC "-//W3C//DTD SVG 1.0//EN" "http://www.w3.org/TR/2001/REC-SVG-20010904/DTD/svg10.dtd">
<svg version="1.0" id="Layer_1" xmlns="http://www.w3.org/2000/svg" xmlns:xlink="http://www.w3.org/1999/xlink" x="0px" y="0px"
	 width="135.604px" height="111.222px" viewBox="0 0 135.604 111.222" enable-background="new 0 0 135.604 111.222"
	 xml:space="preserve">
<path fill="#FFFFFF" stroke="#000000" d="M124.354,25.678c0-13.446-10.901-24.347-24.348-24.347c-4.854,0-9.374,1.427-13.172,3.877
	c-2.92-1.971-6.44-3.123-10.229-3.123c-5.216,0-9.918,2.184-13.252,5.683c-0.302-0.005-0.602-0.021-0.905-0.021
	c-28.561,0-51.713,23.153-51.713,51.714c0,28.56,23.153,51.713,51.713,51.713s51.712-23.153,51.712-51.713
	c0-4.457-0.563-8.782-1.623-12.908C119.618,42.296,124.354,34.542,124.354,25.678z"/>
</svg>
