<?xml version="1.0" encoding="utf-8"?>
<!-- Generator: Adobe Illustrator 14.0.0, SVG Export Plug-In . SVG Version: 6.00 Build 43363)  -->
<!DOCTYPE svg PUBLIC "-//W3C//DTD SVG 1.1//EN" "http://www.w3.org/Graphics/SVG/1.1/DTD/svg11.dtd">
<svg version="1.1" id="Layer_1" xmlns="http://www.w3.org/2000/svg" xmlns:xlink="http://www.w3.org/1999/xlink" x="0px" y="0px"
	 width="72px" height="148px" viewBox="0 0 72 148" enable-background="new 0 0 72 148" xml:space="preserve">
<path d="M15,137c-1,2-1,4-1,6"/>
<path d="M15.049,136c-2-4-5-7-6-10c-5-17,1-53,9-68c7-13,31-36,32-43c0,21,5,50-2,70C41.049,102,21.049,119,15.049,136"/>
<path d="M13.314,75.5c-1,0-1-1-2-1"/>
<path d="M15.367,136.891c0,0,19.621-21.081,46.08-13.671C61.447,123.22,30.779,152.59,15.367,136.891z"/>
</svg>
