<?xml version="1.0" encoding="utf-8"?>
<!-- Generator: Adobe Illustrator 14.0.0, SVG Export Plug-In . SVG Version: 6.00 Build 43363)  -->
<!DOCTYPE svg PUBLIC "-//W3C//DTD SVG 1.1//EN" "http://www.w3.org/Graphics/SVG/1.1/DTD/svg11.dtd">
<svg version="1.1" id="Layer_1" xmlns="http://www.w3.org/2000/svg" xmlns:xlink="http://www.w3.org/1999/xlink" x="0px" y="0px"
	 width="44.723px" height="57.406px" viewBox="0 0 44.723 57.406" enable-background="new 0 0 44.723 57.406" xml:space="preserve">
<path d="M36.112,21.578c0-5.868-4.757-10.625-10.625-10.625c-3.595,0-6.767,1.79-8.689,4.522c-4.42,0.23-7.936,3.876-7.936,8.353
	c0,4.625,3.75,8.375,8.375,8.375c0.014,0,0.027-0.002,0.041-0.002c-0.023,0.269-0.041,0.539-0.041,0.814
	c0,0.511,0.052,1.009,0.132,1.497c-0.891,0.455-1.507,1.371-1.507,2.44c0,1.519,1.231,2.75,2.75,2.75
	c0.44,0,0.851-0.113,1.219-0.297c1.67,1.723,4.004,2.797,6.593,2.797c5.074,0,9.188-4.113,9.188-9.188
	c0-1.907-0.582-3.679-1.576-5.146C35.334,26.106,36.112,23.936,36.112,21.578z"/>
</svg>
