<?xml version="1.0" encoding="utf-8"?>
<!-- Generator: Adobe Illustrator 14.0.0, SVG Export Plug-In . SVG Version: 6.00 Build 43363)  -->
<!DOCTYPE svg PUBLIC "-//W3C//DTD SVG 1.1//EN" "http://www.w3.org/Graphics/SVG/1.1/DTD/svg11.dtd">
<svg version="1.1" id="Layer_1" xmlns="http://www.w3.org/2000/svg" xmlns:xlink="http://www.w3.org/1999/xlink" x="0px" y="0px"
	 width="115.45px" height="166.328px" viewBox="0 0 115.45 166.328" enable-background="new 0 0 115.45 166.328"
	 xml:space="preserve">
<g>
	<path fill="none" stroke="#979AA7" d="M97.349,78.432c-2.13-3.825-5.262,5.115-7.691,6.082c-2.433,0.903-4.694-0.286-7.203-1.149
		c-5.156-1.442-10.467-7.201-16.492-4.532c-0.23,0.168-55.076-14.397-54.13,8.289c0.456,4.708,9.613,5.346,10.166,6.032
		c11.827,13.359,44.119,21.012,46.375,17.192c7.531-8.022,13.474-12.702,20.984-19.751c2.332-2.088,5.521-12.499,7.643-9.101
		c0.043,0.091,0.162-0.603,0.273-1.451C97.363,79.188,97.419,78.369,97.349,78.432L97.349,78.432z"/>
</g>
</svg>
