<?xml version="1.0" encoding="utf-8"?>
<!-- Generator: Adobe Illustrator 14.0.0, SVG Export Plug-In . SVG Version: 6.00 Build 43363)  -->
<!DOCTYPE svg PUBLIC "-//W3C//DTD SVG 1.1//EN" "http://www.w3.org/Graphics/SVG/1.1/DTD/svg11.dtd">
<svg version="1.1" id="Layer_1" xmlns="http://www.w3.org/2000/svg" xmlns:xlink="http://www.w3.org/1999/xlink" x="0px" y="0px"
	 width="109.594px" height="47.124px" viewBox="0 0 109.594 47.124" enable-background="new 0 0 109.594 47.124"
	 xml:space="preserve">
<g>
	<path fill="none" stroke="#000000" d="M41.692,46.624c-1.07,0-2.182-0.046-3.344-0.143c-17.186-1.433-18.997-6.875-21.74-15.114
		c-1.188-3.566-2.533-7.608-5.459-12.29c-1.418-2.548-3.078-4.846-4.684-7.066C4.348,9.082,2.161,6.055,0.63,2.61
		C0.293,1.854,0.634,0.967,1.391,0.63c0.76-0.338,1.644,0.006,1.98,0.762c1.404,3.159,3.405,5.929,5.525,8.861
		c1.656,2.293,3.369,4.663,4.834,7.301c3.076,4.918,4.544,9.325,5.723,12.866c2.617,7.858,3.931,11.804,19.143,13.071
		c11.295,0.942,17.445-3.285,23.955-7.761c6.576-4.521,13.379-9.198,25.502-8.523c0.002,0,0.005,0,0.007,0
		c5.072,0,14.462,2.631,18.698,7.568c1.879,2.19,2.63,4.606,2.233,7.182c-0.126,0.818-0.894,1.376-1.711,1.254
		c-0.818-0.126-1.38-0.892-1.254-1.711c0.261-1.693-0.245-3.254-1.546-4.771c-3.604-4.2-12.05-6.523-16.511-6.523
		c-11.183-0.613-17.274,3.566-23.72,7.998C58.219,42.349,52.001,46.624,41.692,46.624L41.692,46.624z"/>
</g>
</svg>
