<?xml version="1.0" encoding="utf-8"?>
<!-- Generator: Adobe Illustrator 14.0.0, SVG Export Plug-In . SVG Version: 6.00 Build 43363)  -->
<!DOCTYPE svg PUBLIC "-//W3C//DTD SVG 1.1//EN" "http://www.w3.org/Graphics/SVG/1.1/DTD/svg11.dtd">
<svg version="1.1" id="Layer_1" xmlns="http://www.w3.org/2000/svg" xmlns:xlink="http://www.w3.org/1999/xlink" x="0px" y="0px"
	 width="109.593px" height="47.123px" viewBox="-10.074 -0.5 109.593 47.123" enable-background="new -10.074 -0.5 109.593 47.123"
	 xml:space="preserve">
<g>
	<path fill="none" stroke="#000000" d="M142.67,141.518c-0.456,0-0.905-0.207-1.201-0.602c-0.821-1.098-2.143-1.977-3.539-2.908
		c-1.499-1-3.048-2.031-4.172-3.469c-0.633-0.547-1.338-1.188-2.102-1.881c-4.459-4.055-11.183-10.166-16.514-8.803
		c-1.57,0.662-3.701,2.523-5.584,4.17c-1.707,1.492-3.318,2.899-4.645,3.563c-0.738,0.369-1.642,0.07-2.012-0.671
		s-0.07-1.642,0.671-2.013c0.982-0.49,2.522-1.836,4.011-3.139c2.198-1.92,4.472-3.906,6.522-4.728
		c0.053-0.021,0.106-0.039,0.163-0.056c6.933-1.887,14.438,4.938,19.404,9.453c0.788,0.717,1.512,1.375,2.155,1.929
		c0.083,0.069,0.158,0.149,0.225,0.237c0.822,1.098,2.142,1.978,3.538,2.908c1.547,1.03,3.146,2.096,4.276,3.605
		c0.497,0.662,0.362,1.603-0.301,2.1C143.299,141.419,142.983,141.518,142.67,141.518L142.67,141.518z"/>
</g>
<g>
	<path fill="none" stroke="#000000" d="M18.663,36.959c-3.21,0-6.155-0.553-8.402-1.85c-0.648-0.037-1.273-0.188-1.729-0.689
		c-0.557-0.615-0.483-1.336-0.449-1.683c0.025-0.244,0.025-0.292-0.028-0.399c-0.37-0.74-0.07-1.643,0.672-2.013
		c0.739-0.37,1.641-0.069,2.012,0.671c0.217,0.436,0.312,0.833,0.345,1.176c0.148,0.039,0.29,0.102,0.422,0.185
		c6.407,4.077,21.964-0.205,27.448-5.017c0.479-0.576,1.974-3.528,2.164-4.273c0.026-0.292,0.14-0.571,0.322-0.803
		c2.035-2.543,4.384-3.647,6.271-4.535c0.685-0.322,1.281-0.604,1.763-0.904c0.778-0.814,1.34-1.797,1.932-2.834
		c0.689-1.207,1.402-2.455,2.521-3.572c0.164-0.166,0.364-0.289,0.586-0.363c3.195-1.064,7.731-0.934,12.119-0.807
		c1.366,0.04,2.716,0.079,3.985,0.079c0.828,0,1.5,0.672,1.5,1.5s-0.672,1.5-1.5,1.5c-1.298,0-2.676-0.04-4.074-0.08
		c-3.952-0.116-8.035-0.233-10.738,0.548c-0.708,0.782-1.237,1.709-1.794,2.684c-0.689,1.208-1.402,2.455-2.521,3.574
		c-0.07,0.07-0.146,0.134-0.229,0.188c-0.685,0.456-1.454,0.817-2.271,1.202c-1.621,0.764-3.451,1.624-5.01,3.458
		c-0.492,1.668-2.229,4.892-2.912,5.571C36.634,33.413,26.802,36.957,18.663,36.959L18.663,36.959z"/>
</g>
<g>
	<path fill="none" stroke="#000000" d="M176.885,227.391c-7.288,0-15.203-1.104-18.769-2.688c-0.234-0.104-0.437-0.267-0.591-0.472
		c-0.487-0.649-1.067-1.393-1.707-2.211c-4.573-5.854-12.226-15.653-11.615-24.196c0.058-0.826,0.765-1.459,1.604-1.39
		c0.825,0.059,1.447,0.775,1.389,1.603c-0.528,7.394,6.681,16.622,10.987,22.137c0.549,0.702,1.054,1.351,1.497,1.933
		c5.739,2.289,22.918,3.463,28.593,0.737c1.118-1.821,2.417-3.634,3.787-5.545c1.041-1.453,2.116-2.956,3.192-4.569
		c0.457-0.689,1.39-0.877,2.08-0.416c0.688,0.459,0.875,1.391,0.416,2.08c-1.104,1.655-2.195,3.18-3.252,4.652
		c-1.424,1.988-2.771,3.867-3.875,5.708c-0.136,0.226-0.328,0.412-0.559,0.54C187.392,226.777,182.312,227.391,176.885,227.391
		L176.885,227.391z"/>
</g>
</svg>
