<?xml version="1.0" encoding="utf-8"?>
<!-- Generator: Adobe Illustrator 14.0.0, SVG Export Plug-In . SVG Version: 6.00 Build 43363)  -->
<!DOCTYPE svg PUBLIC "-//W3C//DTD SVG 1.1//EN" "http://www.w3.org/Graphics/SVG/1.1/DTD/svg11.dtd">
<svg version="1.1" id="Layer_1" xmlns="http://www.w3.org/2000/svg" xmlns:xlink="http://www.w3.org/1999/xlink" x="0px" y="0px"
	 width="142px" height="141.832px" viewBox="0 0 142 141.832" enable-background="new 0 0 142 141.832" xml:space="preserve">
<path fill="none" stroke="#000000" stroke-width="3" stroke-linecap="round" stroke-linejoin="round" stroke-miterlimit="10" d="
	M3.08,56.177c0-11.072-2.605-15.631,6.513-20.189c5.211-1.303,22.144,0.651,24.75-4.559c4.559-7.166-3.908-24.75,9.118-28.657"/>
<path fill="none" stroke="#000000" stroke-width="3" stroke-linecap="round" stroke-linejoin="round" stroke-miterlimit="10" d="
	M39.552,90.695c0.651,1.304-0.651,1.955,1.302,1.955c7.164,4.559,23.446,0,29.308-5.211c0.651-0.65,2.605-4.56,2.605-5.209
	c2.604-3.256,5.861-3.908,7.815-5.211c1.954-1.953,2.604-4.561,4.56-6.514c3.906-1.303,10.42-0.651,15.629-0.651"/>
<path fill="none" stroke="#000000" stroke-width="3" stroke-linecap="round" stroke-linejoin="round" stroke-miterlimit="10" d="
	M124.871,80.927c-1.953-3.256-5.211-4.559-8.467-5.86"/>
<path fill="none" stroke="#000000" stroke-width="3" stroke-linecap="round" stroke-linejoin="round" stroke-miterlimit="10" d="
	M36.947,116.747c6.513,1.955,15.63,9.119,23.447,4.562"/>
<path fill="none" stroke="#000000" stroke-width="3" stroke-linecap="round" stroke-linejoin="round" stroke-miterlimit="10" d="
	M20.665,97.208c2.605,5.86,7.164,10.42,10.42,16.281c9.77,15.633,2.605,24.75,26.052,26.704
	c23.446,1.953,26.05-17.584,49.498-16.281c6.514,0,20.842,4.559,19.539,13.023"/>
<path fill="none" stroke="#000000" stroke-width="3" stroke-linecap="round" stroke-linejoin="round" stroke-miterlimit="10" d="
	M126.825,134.333c0.651,3.256,1.303,5.21,4.559,5.21c7.164,0,4.56-18.887,2.604-21.493c-3.256-1.954-6.512-10.421-2.604-13.024
	c3.257-3.908,5.861-10.422-1.303-11.724"/>
<path fill="none" stroke="#000000" stroke-width="3" stroke-linecap="round" stroke-linejoin="round" stroke-miterlimit="10" d="
	M21.316,98.511c-8.467-5.21-9.769-14.979-16.283-21.491"/>
</svg>
