<?xml version="1.0" encoding="utf-8"?>
<!-- Generator: Adobe Illustrator 14.0.0, SVG Export Plug-In . SVG Version: 6.00 Build 43363)  -->
<!DOCTYPE svg PUBLIC "-//W3C//DTD SVG 1.1//EN" "http://www.w3.org/Graphics/SVG/1.1/DTD/svg11.dtd">
<svg version="1.1" id="Layer_1" xmlns="http://www.w3.org/2000/svg" xmlns:xlink="http://www.w3.org/1999/xlink" x="0px" y="0px"
	 width="109.593px" height="47.123px" viewBox="-10.074 -0.5 109.593 47.123" enable-background="new -10.074 -0.5 109.593 47.123"
	 xml:space="preserve">
<g>
	<path fill="none" stroke="#000000" d="M39.63,38.543c-7.288,0-15.203-1.104-18.769-2.688c-0.234-0.104-0.437-0.267-0.591-0.472
		c-0.487-0.649-1.067-1.393-1.707-2.211C13.99,27.317,6.338,17.519,6.948,8.976c0.058-0.826,0.765-1.459,1.604-1.39
		C9.377,7.645,9.999,8.361,9.94,9.188c-0.528,7.394,6.681,16.622,10.987,22.137c0.549,0.702,1.054,1.351,1.497,1.933
		c5.739,2.289,22.918,3.463,28.593,0.737c1.118-1.821,2.417-3.634,3.787-5.545c1.041-1.453,2.116-2.956,3.192-4.569
		c0.457-0.689,1.39-0.877,2.08-0.416c0.688,0.459,0.875,1.391,0.416,2.08c-1.104,1.655-2.195,3.18-3.252,4.652
		c-1.424,1.988-2.771,3.867-3.875,5.708c-0.136,0.226-0.328,0.412-0.559,0.54C50.137,37.93,45.057,38.543,39.63,38.543L39.63,38.543
		z"/>
</g>
</svg>
