<?xml version="1.0" encoding="utf-8"?>
<!-- Generator: Adobe Illustrator 14.0.0, SVG Export Plug-In . SVG Version: 6.00 Build 43363)  -->
<!DOCTYPE svg PUBLIC "-//W3C//DTD SVG 1.1//EN" "http://www.w3.org/Graphics/SVG/1.1/DTD/svg11.dtd">
<svg version="1.1" id="Layer_1" xmlns="http://www.w3.org/2000/svg" xmlns:xlink="http://www.w3.org/1999/xlink" x="0px" y="0px"
	 width="109.593px" height="47.123px" viewBox="-10.074 -0.5 109.593 47.123" enable-background="new -10.074 -0.5 109.593 47.123"
	 xml:space="preserve">
<g>
	<path fill="none" stroke="#000000" d="M57.875,33.49c-0.456,0-0.905-0.207-1.201-0.602c-0.821-1.098-2.143-1.977-3.539-2.908
		c-1.499-1-3.048-2.031-4.172-3.469c-0.633-0.547-1.338-1.188-2.102-1.881c-4.459-4.055-11.183-10.166-16.514-8.803
		c-1.57,0.662-3.701,2.523-5.584,4.17c-1.707,1.492-3.318,2.899-4.645,3.563c-0.738,0.369-1.642,0.07-2.012-0.671
		s-0.07-1.642,0.671-2.013c0.982-0.49,2.522-1.836,4.011-3.139c2.198-1.92,4.472-3.906,6.522-4.728
		c0.053-0.021,0.106-0.039,0.163-0.056c6.933-1.887,14.438,4.938,19.404,9.453c0.788,0.717,1.512,1.375,2.155,1.929
		c0.083,0.069,0.158,0.149,0.225,0.237c0.822,1.098,2.142,1.978,3.538,2.908c1.547,1.03,3.146,2.096,4.276,3.605
		c0.497,0.662,0.362,1.603-0.301,2.1C58.504,33.392,58.188,33.49,57.875,33.49L57.875,33.49z"/>
</g>
<g>
	<path fill="none" stroke="#000000" d="M176.885,227.391c-7.288,0-15.203-1.104-18.769-2.688c-0.234-0.104-0.437-0.267-0.591-0.472
		c-0.487-0.649-1.067-1.393-1.707-2.211c-4.573-5.854-12.226-15.653-11.615-24.196c0.058-0.826,0.765-1.459,1.604-1.39
		c0.825,0.059,1.447,0.775,1.389,1.603c-0.528,7.394,6.681,16.622,10.987,22.137c0.549,0.702,1.054,1.351,1.497,1.933
		c5.739,2.289,22.918,3.463,28.593,0.737c1.118-1.821,2.417-3.634,3.787-5.545c1.041-1.453,2.116-2.956,3.192-4.569
		c0.457-0.689,1.39-0.877,2.08-0.416c0.688,0.459,0.875,1.391,0.416,2.08c-1.104,1.655-2.195,3.18-3.252,4.652
		c-1.424,1.988-2.771,3.867-3.875,5.708c-0.136,0.226-0.328,0.412-0.559,0.54C187.392,226.777,182.312,227.391,176.885,227.391
		L176.885,227.391z"/>
</g>
</svg>
