<?xml version="1.0" encoding="utf-8"?>
<!-- Generator: Adobe Illustrator 14.0.0, SVG Export Plug-In . SVG Version: 6.00 Build 43363)  -->
<!DOCTYPE svg PUBLIC "-//W3C//DTD SVG 1.1//EN" "http://www.w3.org/Graphics/SVG/1.1/DTD/svg11.dtd">
<svg version="1.1" id="Layer_1" xmlns="http://www.w3.org/2000/svg" xmlns:xlink="http://www.w3.org/1999/xlink" x="0px" y="0px"
	 width="864px" height="648px" viewBox="0 0 864 648" enable-background="new 0 0 864 648" xml:space="preserve">
<g>
	<path fill="none" d="M486.486,331.572c3.848-5.771,4.252-13.826,1.741-20.089c-0.614-0.233-1.203-0.478-1.741-0.746
		c0-0.532,0.392-1.063,0.597-1.594c-0.435-0.612-0.983-1.164-1.597-1.676c0.187,1.048,0.28,2.033,0.28,2.551
		c0,4.312-1.438,14.37-6.467,15.806c-3.772,1.131-6.555,1.668-8.762,0.883c-0.098,1.861-0.072,3.723,0.859,5.584
		C472.835,335.883,484.33,334.447,486.486,331.572z"/>
	<path fill="none" d="M470.666,324.373c0.004,0.006,0.014,0.016,0.014,0.016c2.873,0.718,7.902,0,9.34-2.155
		c2.832-4.247,4.262-11.278,2.242-16.295c-0.729,0.107-1.578,0.046-2.961-0.23c-2.022,0-2.625-0.003-3.807-0.505
		c-9.496,0.535-18.781-11.385-24.214-18.176c-0.718-0.719,0.719-1.438,0.719-2.155c0.028,0.027,0.048,0.04,0.073,0.063
		c0.178-0.654,0.315-0.896,2.082-2.22c0.719,0,2.874,0.719,2.874,0.719s0.718,0.719,0,0.719c-0.72,0.719-1.438,1.437-2.874,1.437
		c0,0.057,0,0.124,0,0.188c3.387,4.306,11.039,14.233,14.369,14.9c2.155,1.437,4.312,1.437,5.747,2.155c0.013,0,0.025,0,0.036,0
		c3.129-5.265,8.813-6.809,11.46-10.777c2.874-4.312,2.874-12.933,2.155-17.244c-0.718-3.592-1.437-7.185-2.874-10.059
		c-0.719-0.718-9.34-6.466-10.059-7.185c-11.496-8.622-31.613-24.428-45.983-15.088c-9.34,6.466-17.962,15.088-17.962,27.302
		c0,7.186,0,16.525-0.718,22.992c0,0.963-0.646,0.957-1.071,0.849c-1.424,3.41-3.406,7.331-5.396,10.647
		c-3.594,8.621-7.186,26.583-5.748,35.924c2.154,9.34,3.592,15.807,10.776,22.99c2.155,2.155,11.496-2.873,14.37-4.312
		c14.369-7.187,25.146-12.215,36.644-22.992c2.989-2.989,4.49-8.459,7.395-11.87c-0.584-0.858-1.127-1.92-1.646-3.218l0.719-0.719
		c1.721,1.146,2.067,1.38,2.869,2.159c0.002-0.002,0.003-0.003,0.004-0.003c0,0.003,0.001,0.004,0.001,0.007
		c0.201,0.195,0.431,0.424,0.718,0.711c0,0.719,0.719,0.719,0.719,0.719C470.68,323.904,470.674,324.138,470.666,324.373z"/>
	<path fill="none" d="M491.516,327.262c-0.719,1.438-1.438,5.029-2.874,5.748c-1.437,1.438-3.593,2.156-5.748,3.592
		c-1.437,0-2.874,0-4.312,0c-2.703,0.451-4.842,0.193-6.459-0.635c0.02,1.191,0.126,2.469,0.712,4.229
		c0.718,0,5.747,0.72,6.466,0.72c1.438,0,10.06,0,11.496-0.72c0-0.719,0.719-1.438,0.719-2.155c1.438,0,2.873-0.72,3.593-1.438
		c2.155-3.592,2.155-7.901,2.155-12.212c0-1.438,0-8.622-1.438-9.341c-1.035-1.034-2.566-1.737-4.197-2.348
		C493.129,317.263,492.944,322.617,491.516,327.262z"/>
	<path d="M609.346,276.968c-3.592,0.718-5.748,2.155-9.34,2.155l-2.873-0.719c-0.719-2.874,0.719-10.777-0.719-12.933
		c-3.592-6.466-12.215-7.185-18.682-6.466c-9.341,0-15.808,5.748-21.554,12.214c-3.594,2.874-6.467,3.592-8.623,6.466
		c0,0.719,0.72,1.438,1.438,0.719c5.029-1.437,8.621-5.748,12.215-9.34c6.465-6.467,13.65-9.341,22.271-7.903
		c15.807,2.874,8.623,8.621,10.776,18.681c0,2.155,12.215,1.437,13.652,0.718c0,3.593-0.719,3.593-1.438,6.467
		c-1.438-0.719-10.776-4.312-10.776-2.155c-0.72,3.592,0,6.467,0,9.34c-2.156,0-3.593,0-5.029,0c0-4.311-0.719-3.592-4.311-2.873
		c0,0,0,0.718-0.72,0.718c0,0.343,0.492,0.685,1.006,0.95c-0.176,0.267-0.286,0.487-0.286,0.487c-0.72,2.155-0.72,3.592-2.156,5.029
		c-2.154,2.155-5.748,2.874-8.621,2.874c-4.312,1.437-19.398,0-23.711-2.156c-11.495-5.029-16.524-10.059-30.176-8.621
		c-12.085,2.843-22.762,7.099-29.944,19.019c-0.578-0.179-1.159-0.335-1.737-0.471c-1.096-1.794-2.551-3.347-4.405-4.528
		c0.271-0.117,0.559-0.239,0.883-0.368c6.467-3.593,11.496-10.06,15.807-15.808c2.873-4.311,6.466-10.777,11.496-12.933
		c8.621-3.592,13.65-0.719,21.554,1.438c5.029,0.718,7.186,2.874,12.214,2.155c-0.719-0.719-0.719-1.438-0.719-2.155h-1.437
		c-1.438-0.719-3.594-0.719-5.029-1.438c-7.185-2.155-14.37-5.029-22.272-3.592c-14.369,2.873-16.524,15.806-25.146,24.429
		c-2.875,2.155-5.03,4.311-7.904,5.747c-0.307,0.307-1.265,0.743-2.264,1.143c-0.43-0.155-0.868-0.302-1.328-0.424
		c0,0-0.143,0.145-0.299,0.364c-1.338-0.026-2.676,0.081-4.012-0.364c3.592-3.593,12.932-9.34,13.649-14.37
		c0-5.029,0-20.836-3.592-24.428c-1.438-2.156-3.593-3.593-6.467-5.03c-2.156-1.437-3.592-4.311-6.467-5.748
		c-12.215-6.466-22.991-17.962-38.799-15.807c-5.748,0.719-6.466,2.156-10.776,5.748c-14.37,9.34-16.525,20.836-16.525,36.643
		c0,4.195-0.495,7.891,0.173,11.503c-0.104-0.007-0.173-0.007-0.173-0.007c-5.748,7.902-9.34,17.243-10.776,26.583
		c-1.438,11.497-4.312,29.458,3.593,39.517c0.718,0.719,5.748,7.903,6.466,7.903c6.466,1.438,12.214-1.438,17.962-4.312
		c12.214-6.467,25.865-12.215,35.206-22.272c2.6-3.121,5.572-6.621,7.563-10.494c0.093,2.566,0.74,4.683,2.007,6.168
		c-0.751,0.472-0.229,3.712-0.229,4.326c0,1.438,0.719,2.156,1.438,3.593c0.718,1.438,16.523,0.719,18.68,0.719
		c2.875-1.438,2.156-2.154,3.593-2.873c7.186-3.594,6.466-10.777,6.466-18.682c0-1.438-0.718-6.467-2.153-7.903
		c-1.438-1.796-3.234-2.874-5.119-3.593c0.269,0,0.538,0,0.808,0c0,0.719,1.438-1.437,2.155-2.155
		c1.438-1.437,3.593-4.311,5.748-5.748c5.748-4.311,11.496-7.185,18.681-8.621c10.776-2.874,21.554,3.592,30.896,8.621
		c3.593,1.438,14.37,2.156,18.681,2.156c7.545,0,15.639-0.551,18.508-7.428c0.053,0.087,0.107,0.177,0.172,0.242
		c2.875,0,7.187,0,9.343-0.718c0.717,0,0-2.156,0-2.156c0.717-2.155,0-5.029,0.717-7.185c11.496,3.593,11.496,2.874,11.496-9.341
		C610.064,277.686,610.064,276.968,609.346,276.968z M469.961,322.951c-0.287-0.287-0.517-0.516-0.718-0.711
		c0-0.003-0.001-0.004-0.001-0.007c-0.001,0-0.002,0.001-0.004,0.003c-0.801-0.779-1.148-1.013-2.869-2.159l-0.719,0.719
		c0.52,1.298,1.063,2.359,1.646,3.218c-2.903,3.411-4.404,8.878-7.395,11.87c-11.496,10.777-22.273,15.808-36.644,22.992
		c-2.874,1.438-12.214,6.467-14.37,4.312c-7.185-7.185-8.622-13.65-10.776-22.99c-1.438-9.342,2.154-27.303,5.748-35.924
		c1.988-3.316,3.971-7.237,5.396-10.647c0.426,0.108,1.071,0.114,1.071-0.849c0.718-6.467,0.718-15.807,0.718-22.992
		c0-12.214,8.622-20.835,17.962-27.302c14.37-9.34,34.487,6.466,45.983,15.088c0.719,0.719,9.34,6.467,10.059,7.185
		c1.438,2.874,2.156,6.467,2.874,10.059c0.719,4.312,0.719,12.933-2.155,17.244c-2.646,3.969-8.331,5.513-11.46,10.777
		c-0.011,0-0.023,0-0.035,0c-1.438-0.719-3.593-0.719-5.748-2.155c-3.33-0.667-10.982-10.595-14.369-14.9c0-0.064,0-0.132,0-0.188
		c1.438,0,2.154-0.718,2.874-1.437c0.718,0,0-0.719,0-0.719s-2.155-0.719-2.874-0.719c-1.767,1.324-1.904,1.565-2.082,2.22
		c-0.025-0.023-0.045-0.036-0.073-0.063c0,0.718-1.437,1.437-0.719,2.155c5.433,6.791,14.718,18.711,24.214,18.176
		c1.182,0.502,1.783,0.505,3.807,0.505c1.383,0.276,2.232,0.338,2.961,0.23c2.02,5.017,0.59,12.048-2.242,16.295
		c-1.438,2.155-6.467,2.875-9.34,2.155c0,0-0.01-0.01-0.014-0.016c0.008-0.234,0.014-0.469,0.014-0.703
		C470.68,323.669,469.961,323.669,469.961,322.951z M471.398,332.291c-0.933-1.861-0.957-3.723-0.859-5.584
		c2.207,0.785,4.988,0.248,8.762-0.883c5.029-1.436,6.467-11.495,6.467-15.806c0-0.518-0.095-1.503-0.28-2.551
		c0.612,0.512,1.162,1.063,1.597,1.676c-0.205,0.531-0.597,1.062-0.597,1.594c0.538,0.269,1.127,0.513,1.741,0.746
		c2.511,6.264,2.105,14.318-1.741,20.089C484.33,334.447,472.835,335.883,471.398,332.291z M495.826,315.047
		c1.438,0.719,1.438,7.903,1.438,9.341c0,4.311,0,8.622-2.155,12.213c-0.72,0.719-2.154,1.438-3.593,1.438
		c0,0.719-0.719,1.438-0.719,2.156c-1.438,0.719-10.059,0.719-11.496,0.719c-0.719,0-5.748-0.719-6.466-0.719
		c-0.586-1.76-0.692-3.037-0.712-4.229c1.617,0.828,3.756,1.086,6.459,0.636c1.438,0,2.875,0,4.312,0
		c2.155-1.437,4.313-2.154,5.748-3.593c1.438-0.719,2.155-4.311,2.874-5.747c1.43-4.646,1.613-10,0.113-14.563
		C493.26,313.31,494.791,314.013,495.826,315.047z"/>
</g>
</svg>
