<?xml version="1.0" encoding="utf-8"?>
<!-- Generator: Adobe Illustrator 14.0.0, SVG Export Plug-In . SVG Version: 6.00 Build 43363)  -->
<!DOCTYPE svg PUBLIC "-//W3C//DTD SVG 1.1//EN" "http://www.w3.org/Graphics/SVG/1.1/DTD/svg11.dtd">
<svg version="1.1" id="Layer_1" xmlns="http://www.w3.org/2000/svg" xmlns:xlink="http://www.w3.org/1999/xlink" x="0px" y="0px"
	 width="89.241px" height="109px" viewBox="55.971 8 89.241 109" enable-background="new 55.971 8 89.241 109" xml:space="preserve"
	>
<path fill="none" stroke="#000000" d="M140.858,41.538c-0.386,0.209-0.354-0.699-0.36-1.013c-0.208-0.098-0.4-0.252-0.581-0.47
	c-0.72,0.806-1.516,1.544-2.375,2.203c0.181,1.12,0.283,2.266,0.283,3.437c0,10.385-7.354,19.051-17.14,21.078
	c-0.1,0.351-0.314,0.69-0.727,0.945c0.095,0.092,0.172,0.195,0.263,0.318c0.293,0.393,0.419,0.894,0.348,1.376
	c-0.073,0.488-0.345,0.935-0.743,1.225c-0.282,0.204-0.461,0.335-0.923,0.361c0.383,0.261,0.468,0.467,0.603,0.789
	c0.189,0.459,0.186,0.984-0.011,1.44c-0.196,0.458-0.579,0.824-1.048,1c-0.067,0.025-0.128,0.049-0.188,0.068
	c0.733,2.589,1.135,5.318,1.135,8.142c0,16.455-13.339,29.794-29.794,29.794c-16.455,0-29.794-13.339-29.794-29.794
	c0-0.626,0.026-1.245,0.064-1.861c-0.509,0.044-0.916,0.085-1.146,0.12c-0.21,0.085-0.44,0.13-0.68,0.13
	c-1.015,0-1.837-0.822-1.837-1.837c0-0.302,0.044-0.557,0.127-0.772c-0.102-0.218-0.163-0.48-0.18-0.796
	c-0.021-0.386,0.033-0.698,0.153-0.955c-0.154-0.239-0.25-0.545-0.277-0.931c-0.032-0.43,0.033-0.771,0.177-1.044
	c-0.184-0.252-0.297-0.58-0.328-1.01c-0.032-0.457,0.042-0.813,0.208-1.097c-0.202-0.259-0.322-0.604-0.349-1.063
	c-0.028-0.486,0.064-0.859,0.257-1.146c-0.218-0.271-0.344-0.634-0.359-1.124c-0.017-0.519,0.099-0.904,0.325-1.194
	c-0.233-0.283-0.36-0.666-0.356-1.188c0.004-0.564,0.158-0.966,0.434-1.251c-0.257-0.305-0.383-0.716-0.348-1.284
	c0.041-0.636,0.259-1.053,0.619-1.323c-0.297-0.338-0.429-0.789-0.338-1.415c0.073-0.499,0.313-1.049,0.955-1.358
	c-0.387-0.401-0.538-0.924-0.338-1.663c0.253-0.935,0.817-1.289,1.593-1.342c-0.75-0.793-0.566-1.595-0.342-2.062
	c0.212-0.443,0.604-0.791,1.07-0.951c0.48-0.166,0.716-0.247,1.778,0.182c-0.823-0.802-0.841-1.049-0.88-1.558
	c-0.038-0.495,0.129-0.994,0.457-1.367c0.331-0.374,0.811-0.603,1.31-0.626c0.492-0.021,0.742-0.034,1.55,0.607
	c-0.841-1.621-0.09-2.448,0.446-2.801c0.411-0.271,0.927-0.366,1.408-0.265c0.419,0.09,0.659,0.141,1.161,0.736
	c-0.169-0.748-0.069-0.979,0.119-1.373c0.213-0.445,0.605-0.794,1.071-0.954c0.467-0.16,0.994-0.124,1.436,0.1
	c0.513,0.258,0.732,0.369,1.278,1.845c-0.014-1.577,0.151-1.755,0.539-2.176c0.336-0.365,0.817-0.584,1.313-0.598
	c0.494-0.016,0.987,0.179,1.343,0.525c0.38,0.369,0.559,0.542,0.645,1.808c0.381-1.21,0.593-1.337,1.046-1.607
	c0.423-0.252,0.943-0.326,1.418-0.203c0.476,0.125,0.892,0.443,1.137,0.87c0.171,0.296,0.283,0.49,0.269,0.937
	c0.585-0.647,1.255-0.899,2.196-0.424c0.733,0.373,1.011,0.877,1.015,1.487c0.541-0.279,1.113-0.268,1.777,0.196
	c0.556,0.39,0.79,0.827,0.806,1.313c0.606-0.107,1.09,0.132,1.44,0.43c0.309,0.261,0.589,0.635,0.643,1.146
	c0.402-0.011,0.792,0.149,1.2,0.525c0.914-0.084,1.837-0.132,2.773-0.132c1.632,0,3.231,0.136,4.792,0.389
	c-0.082-0.131-0.144-0.262-0.181-0.398c-0.338-0.022-0.683-0.169-1.048-0.473c-0.392-0.323-0.603-0.658-0.674-1.011
	c-0.362-0.012-0.728-0.165-1.115-0.499c-0.422-0.364-0.628-0.736-0.671-1.127c-0.001,0-0.001,0-0.002,0
	c-0.394,0-0.786-0.16-1.189-0.535c-0.451-0.419-0.638-0.838-0.633-1.275c-0.44,0.011-0.86-0.166-1.283-0.608
	c-0.487-0.509-0.622-1.003-0.521-1.508c-0.518,0.034-0.99-0.166-1.434-0.727c-0.546-0.689-0.553-1.302-0.238-1.904
	c-0.678,0.081-1.252-0.147-1.701-0.922c-0.607-1.048-0.239-1.796,0.59-2.495c-0.722,0.126-0.963,0.021-1.341-0.177
	c-0.435-0.226-0.77-0.628-0.915-1.096c-0.146-0.473-0.094-1,0.144-1.435c0.229-0.42,0.349-0.643,1.271-1.003
	c-0.999-0.042-1.176-0.207-1.53-0.534c-0.361-0.335-0.578-0.808-0.594-1.299c-0.016-0.492,0.171-0.982,0.511-1.338
	c0.28-0.294,0.444-0.467,1.072-0.577c-0.597-0.225-0.725-0.424-0.944-0.767c-0.267-0.416-0.357-0.932-0.248-1.413
	c0.11-0.481,0.417-0.906,0.837-1.164c0.351-0.217,0.553-0.341,1.213-0.28c-0.54-0.382-0.612-0.609-0.738-1.001
	c-0.15-0.47-0.105-0.992,0.125-1.428c0.229-0.435,0.632-0.767,1.102-0.909c0.316-0.095,0.524-0.158,0.914-0.064
	c-0.228-0.329-0.244-0.546-0.269-0.874c-0.037-0.489,0.126-0.983,0.447-1.354c0.32-0.369,0.784-0.6,1.272-0.633
	c0.24-0.017,0.421-0.028,0.641,0.036c-0.195-0.672-0.058-1.28,0.658-1.842c0.649-0.511,1.224-0.548,1.778-0.287
	c0.008-0.791,0.464-1.25,0.937-1.513c0.449-0.249,1.039-0.394,1.674-0.061c0.151-0.7,0.636-1.06,1.112-1.245
	c0.458-0.178,1.035-0.243,1.6,0.125c0.249-0.627,0.756-0.907,1.233-1.027c0.473-0.119,1.045-0.112,1.556,0.311
	c0.324-0.581,0.857-0.794,1.34-0.855c0.49-0.061,1.068,0.017,1.528,0.521c0.394-0.555,0.958-0.706,1.452-0.706
	c0.002,0,0.003,0,0.004,0c0.516,0.001,1.105,0.166,1.498,0.778c0.351-0.446,0.852-0.665,1.621-0.553
	c0.468,0.069,1.148,0.321,1.445,1.184c0.646-0.649,1.375-0.574,1.827-0.427c0.255,0.083,0.487,0.22,0.68,0.398
	c0.252,0.001,0.525,0.05,0.77,0.158c0.274,0.123,0.514,0.31,0.698,0.542c0.293,0.02,0.583,0.111,0.839,0.269
	c0.271,0.167,0.494,0.401,0.646,0.676c0.311,0.055,0.606,0.189,0.854,0.394c0.017,0.015,0.028,0.034,0.045,0.049
	c3.07-4.519,8.25-7.488,14.125-7.488c5.655,0,10.665,2.753,13.77,6.99C140.949,18.631,150.6,36.256,140.858,41.538z"/>
</svg>
