<?xml version="1.0" encoding="utf-8"?>
<!-- Generator: Adobe Illustrator 14.0.0, SVG Export Plug-In . SVG Version: 6.00 Build 43363)  -->
<!DOCTYPE svg PUBLIC "-//W3C//DTD SVG 1.1//EN" "http://www.w3.org/Graphics/SVG/1.1/DTD/svg11.dtd">
<svg version="1.1" id="Layer_1" xmlns="http://www.w3.org/2000/svg" xmlns:xlink="http://www.w3.org/1999/xlink" x="0px" y="0px"
	 width="135.604px" height="111.223px" viewBox="0 0 135.604 111.223" enable-background="new 0 0 135.604 111.223"
	 xml:space="preserve">
<path fill="none" stroke="#000000" d="M58.171,31.111c-14.61-4.148-38.063,7.746-37.125,24.934
	C8.196,59.672,4.989,77.706,13.758,86.933c5.8,6.103,17.081,11.961,25.338,12.987c11.575,1.438,23.834-2.49,35.155-4.496
	c9.467-1.678,23.968-3.757,25.934-15.169c35.723,0.842,33.225-32.418,5.813-43.408c-5.535-2.219-11.747-1.851-16.896-3.688
	c-3.535-1.262-6.169-4.949-10.58-6.091c-9.074-2.35-14.764,1.18-21.352,5.043"/>
</svg>
