<?xml version="1.0" encoding="utf-8"?>
<!-- Generator: Adobe Illustrator 14.0.0, SVG Export Plug-In . SVG Version: 6.00 Build 43363)  -->
<!DOCTYPE svg PUBLIC "-//W3C//DTD SVG 1.1//EN" "http://www.w3.org/Graphics/SVG/1.1/DTD/svg11.dtd">
<svg version="1.1" id="Layer_1" xmlns="http://www.w3.org/2000/svg" xmlns:xlink="http://www.w3.org/1999/xlink" x="0px" y="0px"
	 width="135.604px" height="111.223px" viewBox="0 0 135.604 111.223" enable-background="new 0 0 135.604 111.223"
	 xml:space="preserve">
<g>
	<path d="M18.838,64.498l-0.074,0.003c-0.977,0.042-1.943,0.084-2.92,0.097l-0.034,0.998c1.576,0.129,3.166,0.244,4.754,0.343
		l0.148-0.985c-0.589-0.141-1.178-0.29-1.763-0.438L18.838,64.498z"/>
	<path fill="#FFFFFF" d="M71.573,37.846c-3.084-0.361-6.193-0.688-9.235-1.01c-7.669-0.809-15.509-1.636-23.058-2.988
		c8.84,2.246,18.886,3.623,30.39,4.177C70.275,37.968,70.912,37.907,71.573,37.846z"/>
	<path d="M14.356,40.992c0.032,0.055,0.065,0.104,0.129,0.197l0.079,0.091c2.553,2.321,5.029,4.233,7.615,5.873
		c1.455,0.723,2.788,1.074,4.074,1.074l0.177-0.002l0.149-0.973c-4-1.37-7.854-3.686-11.458-6.882L14.356,40.992z"/>
	<path fill="#FFFFFF" d="M10.969,33.869c2.055,1.804,4.295,3.314,6.834,4.156c4.128,0.953,8.455,1.594,13.07,1.934
		c-4.872-0.824-9.25-1.899-13.385-3.273C15.119,35.954,12.955,35.02,10.969,33.869z"/>
	<path d="M38.015,19.133c5.651-4.235,14.334-7.308,20.645-7.308c1.24,0,2.375,0.117,3.374,0.349l0.264-0.964
		c-1.996-0.63-4.022-0.949-6.022-0.949c-7.127,0-13.527,4.075-18.849,8.064c-0.003,0.002-0.007,0.005-0.01,0.008L38.015,19.133z"/>
	<path fill="#FFFFFF" d="M124.798,72.117c-0.956,1.788-2.156,3.519-3.578,5.164C122.693,75.667,123.907,73.916,124.798,72.117z"/>
	<path fill="#FFFFFF" d="M45.056,62.733c0.263-0.008,0.525-0.016,0.788-0.022c-0.263-0.005-0.525-0.011-0.787-0.017L45.056,62.733z"
		/>
	<path fill="#FFFFFF" d="M60.486,63.045c6.543-0.189,13.277-0.826,20.125-1.9c-12.487,1.234-23.99,1.762-34.487,1.571
		c3.798,0.283,7.552,0.403,11.286,0.372c1.039,0.11,2.055,0.241,3.051,0.395L60.486,63.045z"/>
	<path d="M93.358,58.673c-15.679,2.044-30.141,3.081-42.985,3.081c-5.853,0-11.476-0.216-16.711-0.641l-0.132,0.989
		c2.812,0.522,5.774,0.95,8.837,1.279l0.034,0.461c1.212-0.063,2.42-0.106,3.574-0.138c3.377,0.258,6.792,0.39,10.147,0.39
		c0.432,0,0.864-0.003,1.239-0.01c9.69,1.029,17.403,3.97,24.273,9.255l0.625-0.78c-5.124-4.271-10.866-7.139-17.456-8.701
		c9.306-0.537,18.949-1.947,28.73-4.202L93.358,58.673z M46.123,62.716c10.497,0.19,22-0.337,34.487-1.571
		c-6.848,1.074-13.582,1.711-20.125,1.9l-0.025,0.438c-0.996-0.153-2.012-0.284-3.051-0.395
		C53.676,63.119,49.922,62.999,46.123,62.716z M45.056,62.733l0-0.039c0.262,0.006,0.524,0.012,0.787,0.017
		C45.582,62.717,45.319,62.725,45.056,62.733z"/>
	<path fill="#FFFFFF" d="M127.31,63.69l-0.358,0.209l0.108-0.002l0.263-0.152c0.583,1.004,1.119,1.994,1.614,2.98
		c-0.598-2.469-1.469-4.944-2.603-7.397l-0.041-0.138c-0.221-1.518-0.614-2.991-1.169-4.381
		c-3.934-5.891-10.648-13.399-20.344-15.824c-4.804-0.736-9.854-1.098-15.396-1.098c-2.578,0-5.232,0.076-8.133,0.235
		c0.399,0.061,0.787,0.121,1.166,0.181l-0.077,0.994l-0.582,0c-4.35,0-8.308-0.089-12.101-0.271
		c-1.656,0.165-3.383,0.338-5.109,0.512c-4.899,0.493-9.903,0.996-14.934,1.326c4.109,0.219,8.229,0.353,12.268,0.485
		c19.794,0.645,40.262,1.313,57.22,12.022C122.282,56.309,125.019,59.762,127.31,63.69z"/>
	<path d="M130.657,70.59c-0.474-3.857-1.612-7.765-3.385-11.617c-0.237-1.587-0.654-3.129-1.239-4.585l-0.048-0.091
		c-4.027-6.043-10.934-13.774-21.008-16.291c-4.9-0.753-10.001-1.119-15.593-1.119c-3.944,0-8.063,0.176-12.957,0.554
		c-4.605-0.608-9.374-1.112-13.985-1.598c-11.662-1.23-23.72-2.503-34.491-5.597l-0.32,0.946c10.009,3.905,21.78,6.354,35.84,7.448
		c-7.435,0.746-15.095,1.489-22.694,1.589v0.001c-9.019-0.854-16.321-2.282-22.984-4.497c-4.613-1.425-8.412-3.629-11.611-6.738
		l-0.721,0.692c3.419,3.815,7.164,7.674,12.072,9.3c6.575,1.519,13.586,2.257,21.435,2.258c0.606,0,1.211-0.004,1.816-0.013V41.23
		c6.965,0.657,14.133,0.891,21.066,1.117c19.661,0.641,39.991,1.304,56.646,11.813c2.985,2.771,5.622,6.087,7.841,9.856
		l-0.003,0.013l0.018,0.029c-0.879,7.554-6.269,14.812-14.82,19.937l0.442,0.893c7.798-3.118,15.237-10.772,15.495-18.815
		c0.848,1.594,1.585,3.167,2.228,4.766L130.657,70.59z M121.22,77.281c1.422-1.646,2.622-3.376,3.578-5.164
		C123.907,73.916,122.693,75.667,121.22,77.281z M62.338,36.837c3.042,0.321,6.151,0.649,9.235,1.01
		c-0.66,0.061-1.298,0.121-1.902,0.179c-11.504-0.554-21.55-1.931-30.39-4.177C46.828,35.2,54.668,36.028,62.338,36.837z
		 M17.804,38.026c-2.539-0.842-4.78-2.352-6.834-4.156c1.985,1.151,4.149,2.084,6.52,2.816c4.134,1.375,8.513,2.449,13.385,3.273
		C26.259,39.62,21.932,38.978,17.804,38.026z"/>
	<path d="M26.771,10.991c0,0,0.001,0,0.001,0c1.089,0.242,2.173,0.511,3.222,0.799c0,0,0,0,0.001,0l0.266-0.964
		c-1.053-0.291-2.122-0.557-3.27-0.812c-0.001,0-0.001,0-0.002,0c-0.459-0.103-0.919-0.2-1.379-0.293l-0.199,0.98c0,0,0,0,0,0
		C25.865,10.794,26.318,10.89,26.771,10.991z"/>
</g>
</svg>
