<?xml version="1.0" encoding="utf-8"?>
<!-- Generator: Adobe Illustrator 13.0.0, SVG Export Plug-In . SVG Version: 6.00 Build 14948)  -->
<!DOCTYPE svg PUBLIC "-//W3C//DTD SVG 1.0//EN" "http://www.w3.org/TR/2001/REC-SVG-20010904/DTD/svg10.dtd">
<svg version="1.0" id="Layer_1" xmlns="http://www.w3.org/2000/svg" xmlns:xlink="http://www.w3.org/1999/xlink" x="0px" y="0px"
	 width="87.943px" height="72.47px" viewBox="0 0 87.943 72.47" enable-background="new 0 0 87.943 72.47" xml:space="preserve">
<path fill="#FFFFFF" stroke="#000000" d="M87.069,18.679c-2.356-15.332-17.24-20.841-31-17c-1.01,0.282-1.999,0.598-2.979,0.935
	c-1.846,1.911-4.11,4.697-5.737,7.994c-0.462,2.453-0.696,5.25,0.717,7.071c-1.862,0.138-3.342,0.658-4,2
	c0.241,2.578,1.721-1.373,4,0c-4.428,2.239-7.022,6.311-9,11c-5.634,0.366-13.445-1.445-15,3c-0.89-3.584,7.518-6.462,11-9
	c-3.212-2.494-7.623,2.339-10,4c-2.544-1.845-3.622-5.154-6.624-6.54l-0.542,0.207c0,0-1.523-0.895-4.072-1.433
	c-4.84,2.263-9.083,4.772-10.762,7.766c-4.524,8.068-1.877,19.373-1,22c3.593,10.759,18.92,19.632,31,21
	C65.605,75.365,90.844,43.238,87.069,18.679z"/>
</svg>
