<?xml version="1.0" encoding="utf-8"?>
<!-- Generator: Adobe Illustrator 14.0.0, SVG Export Plug-In . SVG Version: 6.00 Build 43363)  -->
<!DOCTYPE svg PUBLIC "-//W3C//DTD SVG 1.1//EN" "http://www.w3.org/Graphics/SVG/1.1/DTD/svg11.dtd">
<svg version="1.1" id="Layer_1" xmlns="http://www.w3.org/2000/svg" xmlns:xlink="http://www.w3.org/1999/xlink" x="0px" y="0px"
	 width="140.76px" height="155.061px" viewBox="341.74 242.439 140.76 155.061"
	 enable-background="new 341.74 242.439 140.76 155.061" xml:space="preserve">
<g>
	<path d="M343.582,298.845c-0.829,0-1.5-0.671-1.5-1.5c0-2.189-0.105-4.144-0.198-5.869c-0.375-6.975-0.623-11.582,7.54-15.662
		c0.098-0.049,0.2-0.087,0.307-0.113c1.834-0.459,4.748-0.542,8.122-0.638c5.688-0.162,14.284-0.406,15.65-3.137
		c0.023-0.046,0.049-0.091,0.076-0.134c1.467-2.306,1.347-6.226,1.219-10.375c-0.221-7.193-0.496-16.145,8.733-18.913
		c0.794-0.24,1.629,0.213,1.868,1.005c0.238,0.793-0.212,1.63-1.005,1.868c-7.022,2.106-6.815,8.83-6.597,15.948
		c0.141,4.594,0.275,8.934-1.647,12.016c-2.227,4.268-10.716,4.509-18.211,4.723c-2.965,0.084-5.771,0.164-7.326,0.513
		c-6.247,3.168-6.095,5.993-5.732,12.741c0.095,1.762,0.202,3.76,0.202,6.029C345.082,298.174,344.411,298.845,343.582,298.845
		L343.582,298.845z"/>
</g>
<g>
	<path d="M389.323,337.153c-3.21,0-6.156-0.553-8.404-1.85c-0.647-0.037-1.273-0.187-1.729-0.688
		c-0.557-0.615-0.484-1.335-0.449-1.683c0.024-0.243,0.024-0.291-0.03-0.398c-0.37-0.741-0.07-1.643,0.671-2.013
		c0.74-0.368,1.642-0.07,2.013,0.671c0.216,0.434,0.311,0.832,0.345,1.174c0.148,0.039,0.291,0.102,0.421,0.185
		c6.403,4.076,21.963-0.204,27.449-5.015c0.479-0.577,1.972-3.529,2.164-4.275c0.025-0.292,0.138-0.57,0.321-0.801
		c2.035-2.542,4.383-3.647,6.271-4.536c0.684-0.322,1.282-0.604,1.762-0.905c0.78-0.813,1.341-1.796,1.933-2.833
		c0.689-1.207,1.402-2.453,2.521-3.572c0.165-0.165,0.365-0.289,0.586-0.362c3.197-1.066,7.734-0.935,12.12-0.807
		c1.368,0.04,2.716,0.079,3.985,0.079c0.827,0,1.5,0.671,1.5,1.5c0,0.828-0.673,1.5-1.5,1.5c-1.298,0-2.675-0.04-4.072-0.08
		c-3.953-0.115-8.038-0.234-10.741,0.547c-0.708,0.784-1.237,1.709-1.793,2.684c-0.689,1.207-1.402,2.455-2.522,3.574
		c-0.069,0.07-0.146,0.133-0.229,0.188c-0.684,0.456-1.456,0.819-2.272,1.203c-1.621,0.764-3.45,1.624-5.009,3.458
		c-0.493,1.668-2.229,4.892-2.912,5.572C407.292,333.608,397.46,337.153,389.323,337.153L389.323,337.153z"/>
</g>
<g>
	<path d="M465.374,323.594c-0.509,0-1.006-0.26-1.287-0.729c-1.693-2.822-4.629-3.996-7.736-5.239
		c-0.77-0.308-1.144-1.181-0.836-1.95c0.309-0.769,1.183-1.143,1.95-0.835c3.434,1.373,6.981,2.792,9.194,6.481
		c0.427,0.71,0.196,1.632-0.516,2.058C465.903,323.525,465.637,323.594,465.374,323.594L465.374,323.594z"/>
</g>
<g>
	<path d="M395.271,365.461c-4.483,0-8.961-2.073-12.805-3.853c-1.968-0.91-3.826-1.771-5.448-2.259
		c-0.793-0.237-1.244-1.073-1.005-1.867c0.238-0.793,1.075-1.241,1.868-1.006c1.826,0.549,3.779,1.452,5.846,2.408
		c5.317,2.462,11.343,5.252,16.415,2.293c0.715-0.417,1.635-0.175,2.052,0.54c0.417,0.716,0.175,1.635-0.54,2.052
		C399.57,364.984,397.42,365.461,395.271,365.461L395.271,365.461z"/>
</g>
<g>
	<path d="M400.856,382.999c-1.069,0-2.182-0.046-3.343-0.143c-17.184-1.434-18.996-6.875-21.74-15.114
		c-1.188-3.566-2.534-7.608-5.459-12.29c-1.418-2.549-3.079-4.847-4.684-7.068c-2.116-2.928-4.304-5.955-5.834-9.397
		c-0.336-0.758,0.004-1.645,0.761-1.98c0.758-0.335,1.644,0.006,1.98,0.762c1.404,3.158,3.406,5.929,5.525,8.86
		c1.657,2.293,3.371,4.664,4.835,7.302c3.076,4.918,4.544,9.325,5.723,12.866c2.617,7.859,3.931,11.804,19.143,13.071
		c11.295,0.941,17.445-3.285,23.954-7.762c6.576-4.521,13.376-9.195,25.503-8.522c0.002,0,0.005,0,0.007,0
		c5.072,0,14.462,2.631,18.697,7.568c1.879,2.189,2.631,4.605,2.234,7.182c-0.127,0.818-0.899,1.375-1.711,1.254
		c-0.818-0.126-1.38-0.892-1.254-1.711c0.261-1.693-0.245-3.254-1.546-4.771c-3.604-4.199-12.051-6.522-16.512-6.522
		c-11.194-0.619-17.275,3.566-23.72,7.997C417.386,378.724,411.168,382.999,400.856,382.999L400.856,382.999z"/>
</g>
<g>
	<path d="M471.886,382.21c-4.748,0-5.487-3.708-6.028-6.416c-0.162-0.813,0.363-1.603,1.177-1.765
		c0.815-0.165,1.603,0.364,1.765,1.177c0.682,3.405,1.144,4.004,3.088,4.004c0.61,0,1.4-0.181,2.104-1.589
		c2.304-4.605,0.589-15.214-0.581-17.318c-2.55-1.765-4.718-6.18-4.807-9.894c-0.057-2.333,0.742-4.214,2.254-5.328
		c1.821-2.239,3.319-5.277,2.638-7.158c-0.36-0.994-1.431-1.66-3.18-1.979c-0.814-0.148-1.355-0.93-1.207-1.744
		c0.147-0.815,0.926-1.355,1.743-1.207c3.58,0.649,4.946,2.482,5.464,3.907c1.178,3.247-0.921,7.425-3.276,10.251
		c-0.093,0.11-0.2,0.208-0.32,0.288c-0.773,0.516-1.148,1.49-1.115,2.897c0.071,3.033,2.062,6.634,3.66,7.593
		c0.167,0.101,0.313,0.23,0.43,0.388c1.796,2.395,3.896,14.814,0.981,20.646C475.331,381.646,473.329,382.21,471.886,382.21
		L471.886,382.21z"/>
</g>
<g>
	<path d="M361.817,341.18c-0.268,0-0.54-0.07-0.785-0.223c-5.25-3.23-7.892-8.044-10.447-12.699
		c-1.814-3.305-3.527-6.426-6.111-9.01c-0.586-0.585-0.586-1.535,0-2.121s1.535-0.586,2.121,0c2.887,2.886,4.785,6.344,6.62,9.688
		c2.476,4.512,4.815,8.772,9.389,11.588c0.706,0.434,0.925,1.357,0.491,2.063C362.813,340.926,362.321,341.18,361.817,341.18
		L361.817,341.18z"/>
</g>
</svg>
