<?xml version="1.0" encoding="utf-8"?>
<!-- Generator: Adobe Illustrator 14.0.0, SVG Export Plug-In . SVG Version: 6.00 Build 43363)  -->
<!DOCTYPE svg PUBLIC "-//W3C//DTD SVG 1.1//EN" "http://www.w3.org/Graphics/SVG/1.1/DTD/svg11.dtd">
<svg version="1.1" id="Layer_1" xmlns="http://www.w3.org/2000/svg" xmlns:xlink="http://www.w3.org/1999/xlink" x="0px" y="0px"
	 width="44.723px" height="57.406px" viewBox="0 0 44.723 57.406" enable-background="new 0 0 44.723 57.406" xml:space="preserve">
<g>
	<path fill="none" stroke="#000000" d="M142.67,141.518c-0.456,0-0.905-0.207-1.201-0.602c-0.821-1.098-2.143-1.977-3.539-2.908
		c-1.499-1-3.048-2.031-4.172-3.469c-0.633-0.547-1.338-1.188-2.102-1.881c-4.459-4.055-11.183-10.166-16.514-8.803
		c-1.57,0.662-3.701,2.523-5.584,4.17c-1.707,1.492-3.318,2.899-4.645,3.563c-0.738,0.369-1.642,0.07-2.012-0.671
		s-0.07-1.642,0.671-2.013c0.982-0.49,2.522-1.836,4.011-3.139c2.198-1.92,4.472-3.906,6.522-4.728
		c0.053-0.021,0.106-0.039,0.163-0.056c6.933-1.887,14.438,4.938,19.404,9.453c0.788,0.717,1.512,1.375,2.155,1.929
		c0.083,0.069,0.158,0.149,0.225,0.237c0.822,1.098,2.142,1.978,3.538,2.908c1.547,1.03,3.146,2.096,4.276,3.605
		c0.497,0.662,0.362,1.603-0.301,2.1C143.299,141.419,142.983,141.518,142.67,141.518L142.67,141.518z"/>
</g>
<g>
	<path fill="none" stroke="#000000" d="M243.798,95.221c-3.21,0-6.155-0.553-8.402-1.85c-0.648-0.037-1.273-0.188-1.729-0.689
		c-0.557-0.615-0.483-1.336-0.449-1.683c0.025-0.244,0.025-0.292-0.028-0.399c-0.37-0.74-0.07-1.643,0.672-2.013
		c0.739-0.37,1.641-0.069,2.012,0.671c0.217,0.436,0.312,0.833,0.345,1.176c0.148,0.039,0.29,0.102,0.422,0.185
		c6.407,4.077,21.964-0.205,27.448-5.017c0.479-0.576,1.974-3.528,2.164-4.273c0.026-0.292,0.14-0.571,0.322-0.803
		c2.035-2.543,4.384-3.647,6.271-4.535c0.685-0.322,1.281-0.604,1.763-0.904c0.778-0.814,1.34-1.797,1.932-2.834
		c0.689-1.207,1.402-2.455,2.521-3.572c0.164-0.166,0.364-0.289,0.586-0.363c3.195-1.064,7.731-0.934,12.119-0.807
		c1.366,0.04,2.716,0.079,3.985,0.079c0.828,0,1.5,0.672,1.5,1.5s-0.672,1.5-1.5,1.5c-1.298,0-2.676-0.04-4.074-0.08
		c-3.952-0.116-8.035-0.233-10.738,0.548c-0.708,0.782-1.237,1.709-1.794,2.684c-0.689,1.208-1.402,2.455-2.521,3.574
		c-0.07,0.07-0.146,0.134-0.229,0.188c-0.685,0.456-1.454,0.817-2.271,1.202c-1.621,0.764-3.451,1.624-5.01,3.458
		c-0.492,1.668-2.229,4.892-2.912,5.571C261.768,91.675,251.936,95.219,243.798,95.221L243.798,95.221z"/>
</g>
<g>
	<path fill="none" stroke="#000000" d="M122.828,85.202c-3.21,0-6.156-0.552-8.404-1.849c-0.646-0.037-1.272-0.188-1.729-0.69
		c-0.557-0.615-0.484-1.336-0.449-1.683c0.025-0.244,0.025-0.291-0.029-0.398c-0.369-0.741-0.069-1.643,0.672-2.014
		c0.739-0.368,1.642-0.068,2.012,0.672c0.217,0.435,0.311,0.833,0.345,1.175c0.148,0.04,0.29,0.103,0.42,0.185
		c6.408,4.077,21.964-0.205,27.45-5.016c0.479-0.576,1.972-3.529,2.164-4.273c0.026-0.293,0.138-0.571,0.322-0.803
		c2.035-2.543,4.384-3.648,6.271-4.535c0.685-0.322,1.281-0.604,1.761-0.904c0.779-0.815,1.341-1.797,1.934-2.834
		c0.688-1.207,1.401-2.455,2.521-3.573c0.165-0.165,0.365-0.289,0.586-0.362c3.197-1.066,7.733-0.934,12.119-0.807
		c1.368,0.04,2.716,0.078,3.986,0.078c0.829,0,1.5,0.673,1.5,1.5c0,0.828-0.671,1.5-1.5,1.5c-1.297,0-2.675-0.039-4.074-0.079
		c-3.952-0.116-8.037-0.233-10.739,0.547c-0.708,0.782-1.236,1.71-1.794,2.685c-0.688,1.207-1.401,2.455-2.521,3.574
		c-0.07,0.07-0.146,0.133-0.229,0.188c-0.684,0.457-1.455,0.818-2.271,1.203c-1.622,0.764-3.451,1.623-5.01,3.457
		c-0.493,1.668-2.229,4.892-2.912,5.572C140.798,81.657,130.966,85.201,122.828,85.202L122.828,85.202z"/>
</g>
<g>
	<path fill="none" stroke="#000000" d="M251.39,142.924c-0.511,0-1.007-0.26-1.288-0.729c-1.693-2.822-4.629-3.996-7.737-5.239
		c-0.77-0.308-1.144-1.181-0.836-1.949c0.308-0.771,1.182-1.144,1.949-0.836c3.433,1.372,6.982,2.792,9.195,6.481
		c0.427,0.709,0.196,1.632-0.515,2.058C251.918,142.855,251.652,142.924,251.39,142.924L251.39,142.924z"/>
</g>
<g>
	<path fill="none" stroke="#000000" d="M332.6,146.041c-4.483,0-8.962-2.073-12.806-3.854c-1.968-0.91-3.825-1.771-5.447-2.258
		c-0.793-0.238-1.243-1.074-1.006-1.867s1.074-1.242,1.868-1.006c1.826,0.549,3.778,1.452,5.847,2.408
		c5.315,2.461,11.344,5.253,16.414,2.293c0.717-0.418,1.635-0.175,2.052,0.54c0.417,0.716,0.175,1.636-0.54,2.052
		C336.9,145.564,334.75,146.041,332.6,146.041L332.6,146.041z"/>
</g>
<g>
	<path fill="none" stroke="#000000" d="M296.055,263.494c-1.07,0-2.183-0.046-3.345-0.143c-17.186-1.434-18.997-6.875-21.739-15.115
		c-1.188-3.565-2.533-7.607-5.459-12.289c-1.419-2.549-3.078-4.846-4.685-7.066c-2.117-2.929-4.305-5.956-5.835-9.4
		c-0.336-0.756,0.004-1.644,0.761-1.979c0.761-0.338,1.645,0.006,1.98,0.763c1.404,3.158,3.405,5.928,5.524,8.86
		c1.656,2.293,3.369,4.663,4.834,7.301c3.076,4.918,4.545,9.325,5.724,12.866c2.617,7.857,3.931,11.804,19.143,13.07
		c11.295,0.943,17.445-3.284,23.955-7.76c6.576-4.521,13.379-9.199,25.502-8.523c0.002,0,0.005,0,0.007,0
		c5.072,0,14.462,2.631,18.698,7.568c1.879,2.189,2.63,4.605,2.233,7.182c-0.126,0.818-0.895,1.376-1.711,1.254
		c-0.818-0.126-1.38-0.893-1.254-1.711c0.261-1.693-0.245-3.254-1.547-4.771c-3.604-4.199-12.05-6.522-16.511-6.522
		c-11.183-0.613-17.273,3.565-23.72,7.998C312.583,259.218,306.365,263.494,296.055,263.494L296.055,263.494z"/>
</g>
<g>
	<path fill="none" stroke="#000000" d="M22.273,53.324c-4.748,0-5.488-3.708-6.029-6.416c-0.162-0.813,0.364-1.604,1.177-1.765
		c0.813-0.169,1.604,0.364,1.766,1.177c0.681,3.404,1.143,4.004,3.088,4.004c0.609,0,1.4-0.181,2.104-1.589
		c2.305-4.604,0.59-15.214-0.58-17.317c-2.552-1.768-4.72-6.183-4.808-9.896c-0.055-2.332,0.743-4.213,2.254-5.325
		c1.822-2.239,3.32-5.278,2.64-7.159c-0.361-0.994-1.433-1.66-3.182-1.979c-0.814-0.148-1.354-0.93-1.207-1.744
		s0.934-1.355,1.744-1.207c3.579,0.65,4.946,2.482,5.463,3.906c1.18,3.246-0.92,7.426-3.275,10.252
		c-0.093,0.111-0.201,0.209-0.32,0.289c-0.773,0.516-1.149,1.49-1.116,2.896c0.071,3.032,2.063,6.634,3.661,7.595
		c0.166,0.1,0.313,0.23,0.429,0.387c1.796,2.395,3.897,14.814,0.981,20.646C25.719,52.762,23.717,53.324,22.273,53.324
		L22.273,53.324z"/>
</g>
<g>
	<path fill="none" stroke="#000000" d="M176.885,227.391c-7.288,0-15.203-1.104-18.769-2.688c-0.234-0.104-0.437-0.267-0.591-0.472
		c-0.487-0.649-1.067-1.393-1.707-2.211c-4.573-5.854-12.226-15.653-11.615-24.196c0.058-0.826,0.765-1.459,1.604-1.39
		c0.825,0.059,1.447,0.775,1.389,1.603c-0.528,7.394,6.681,16.622,10.987,22.137c0.549,0.702,1.054,1.351,1.497,1.933
		c5.739,2.289,22.918,3.463,28.593,0.737c1.118-1.821,2.417-3.634,3.787-5.545c1.041-1.453,2.116-2.956,3.192-4.569
		c0.457-0.689,1.39-0.877,2.08-0.416c0.688,0.459,0.875,1.391,0.416,2.08c-1.104,1.655-2.195,3.18-3.252,4.652
		c-1.424,1.988-2.771,3.867-3.875,5.708c-0.136,0.226-0.328,0.412-0.559,0.54C187.392,226.777,182.312,227.391,176.885,227.391
		L176.885,227.391z"/>
</g>
</svg>
