<?xml version="1.0" encoding="utf-8"?>
<!-- Generator: Adobe Illustrator 14.0.0, SVG Export Plug-In . SVG Version: 6.00 Build 43363)  -->
<!DOCTYPE svg PUBLIC "-//W3C//DTD SVG 1.1//EN" "http://www.w3.org/Graphics/SVG/1.1/DTD/svg11.dtd">
<svg version="1.1" id="Layer_1" xmlns="http://www.w3.org/2000/svg" xmlns:xlink="http://www.w3.org/1999/xlink" x="0px" y="0px"
	 width="864px" height="648px" viewBox="0 0 864 648" enable-background="new 0 0 864 648" xml:space="preserve">
<path fill="none" stroke="#000000" stroke-width="3" stroke-linecap="round" stroke-linejoin="round" stroke-miterlimit="10" d="
	M335.766,302.555c0-6.513-9.77-18.887-14.329-23.446c-7.164-6.513-14.979-11.724-24.749-12.375c-6.513-0.651-22.795,0-26.703,3.258
	c-2.605,1.954-4.559,9.769-6.513,12.374c-12.375,19.538-11.724,22.143-11.724,45.591c0,4.559,1.302,16.933,0,21.491
	c-1.954,4.56-7.164,4.56-1.954,11.072c1.302,1.955,1.954,3.258,5.21,2.606c3.908,5.21-1.303,13.677-1.954,17.584
	c2.605,1.954,5.21,0.651,6.513,1.954c0,0,0.652,2.604,0.652,3.256c5.861,7.164,7.815,13.025,14.979,18.887
	c22.795,18.889,63.827,13.027,72.293-16.933c0.651-2.605-0.651-5.21,0-7.164c0-3.256,3.256-7.164,3.909-9.769
	c2.605-6.513,6.513-24.099,4.559-31.263c-0.651-2.605-16.934-25.401-7.816-28.006c5.211,0.651,10.421,14.33,13.026,19.54
	c4.559,8.467,13.026,15.631,23.446,18.235c28.005,7.164,25.4-14.979,49.498-20.84c11.724-2.605,31.263,6.512,38.427,4.559
	c3.907-1.303,11.071-9.118,11.071-13.677c0.651-5.212-2.604-9.12-5.861-13.027c-9.769-11.723-25.4-8.467-39.729-5.862
	c-3.257,0.651-15.63,3.908-19.538,1.954c-1.955-1.303-3.909-5.21-5.211-7.164c-9.118-13.025-13.677-28.657-11.072-44.939
	c1.303-9.769,9.769-18.888,5.861-29.959c-3.907-11.073-28.656-15.631-36.472-5.861c-3.908,5.21-0.651,14.328-3.256,18.235
	c-4.559,0-9.118-1.303-13.025-1.954c-20.841-1.302-4.56,21.493-7.165,32.564c-1.954,7.166-10.42,9.119-12.374,16.283
	c-1.302,6.513,7.164,26.051,0,24.097"/>
<path fill="none" stroke="#000000" stroke-width="3" stroke-linecap="round" stroke-linejoin="round" stroke-miterlimit="10" d="
	M268.032,306.462c-7.815-0.651-12.375,12.375-13.026,18.888c-1.954,17.584,12.375,35.169,29.309,36.473c1.954,0,6.513,0.651,7.815,0
	c1.954-1.304,4.559-5.212,6.512-6.515c3.256-2.604,7.816-4.559,10.421-8.466c4.559-8.467,0-24.749-5.211-31.263
	c-1.954-2.605-5.861-3.908-7.815-6.513c-4.559-3.908-13.025-13.025-20.19-11.072c-3.256,1.303-7.815,6.513-10.42,7.815"/>
<path fill="none" stroke="#000000" stroke-width="3" stroke-linecap="round" stroke-linejoin="round" stroke-miterlimit="10" d="
	M277.801,318.838c-1.302,0.651-1.302,0-1.954,0"/>
<line fill="none" stroke="#000000" stroke-width="3" stroke-linecap="round" stroke-linejoin="round" stroke-miterlimit="10" x1="275.847" y1="318.838" x2="275.847" y2="318.838"/>
<path fill="none" stroke="#000000" stroke-width="3" stroke-linecap="round" stroke-linejoin="round" stroke-miterlimit="10" d="
	M275.847,318.838v0.651c-1.303,2.605-1.954,7.815,0.651,9.118C283.663,329.258,279.755,320.792,275.847,318.838"/>
<path fill="none" stroke="#000000" stroke-width="3" stroke-linecap="round" stroke-linejoin="round" stroke-miterlimit="10" d="
	M343.582,297.345c0-11.072-2.605-15.631,6.513-20.189c5.211-1.303,22.144,0.651,24.75-4.559c4.559-7.166-3.908-24.75,9.118-28.657"
	/>
<path fill="none" stroke="#000000" stroke-width="3" stroke-linecap="round" stroke-linejoin="round" stroke-miterlimit="10" d="
	M380.054,331.863c0.651,1.303-0.651,1.954,1.302,1.954c7.164,4.559,23.446,0,29.308-5.21c0.651-0.651,2.605-4.56,2.605-5.21
	c2.605-3.256,5.862-3.908,7.816-5.21c1.954-1.954,2.605-4.561,4.559-6.514c3.907-1.303,10.42-0.651,15.63-0.651"/>
<path fill="none" stroke="#000000" stroke-width="3" stroke-linecap="round" stroke-linejoin="round" stroke-miterlimit="10" d="
	M465.373,322.094c-1.953-3.256-5.211-4.559-8.467-5.861"/>
<path fill="none" stroke="#000000" stroke-width="3" stroke-linecap="round" stroke-linejoin="round" stroke-miterlimit="10" d="
	M377.449,357.914c6.513,1.955,15.63,9.119,23.447,4.561"/>
<path fill="none" stroke="#000000" stroke-width="3" stroke-linecap="round" stroke-linejoin="round" stroke-miterlimit="10" d="
	M361.167,338.376c2.605,5.861,7.164,10.42,10.42,16.281c9.77,15.633,2.605,24.75,26.052,26.704
	c23.446,1.954,26.051-17.584,49.498-16.281c6.513,0,20.842,4.559,19.539,13.024"/>
<path fill="none" stroke="#000000" stroke-width="3" stroke-linecap="round" stroke-linejoin="round" stroke-miterlimit="10" d="
	M467.327,375.5c0.651,3.256,1.303,5.21,4.559,5.21c7.164,0,4.559-18.887,2.605-21.493c-3.257-1.954-6.513-10.421-2.605-13.025
	c3.257-3.908,5.861-10.421-1.303-11.723"/>
<path fill="none" stroke="#000000" stroke-width="3" stroke-linecap="round" stroke-linejoin="round" stroke-miterlimit="10" d="
	M361.818,339.679c-8.467-5.21-9.769-14.979-16.283-21.492"/>
<path fill="none" stroke="#000000" stroke-width="3" stroke-linecap="round" stroke-linejoin="round" stroke-miterlimit="10" d="
	M257.611,341.632c-0.651,9.118,9.119,20.191,13.026,25.401c5.861,2.605,24.749,3.908,30.61,0.651
	c1.954-3.256,4.56-6.513,7.165-10.422"/>
</svg>
