<?xml version="1.0" encoding="utf-8"?>
<!-- Generator: Adobe Illustrator 14.0.0, SVG Export Plug-In . SVG Version: 6.00 Build 43363)  -->
<!DOCTYPE svg PUBLIC "-//W3C//DTD SVG 1.1//EN" "http://www.w3.org/Graphics/SVG/1.1/DTD/svg11.dtd">
<svg version="1.1" id="Layer_1" xmlns="http://www.w3.org/2000/svg" xmlns:xlink="http://www.w3.org/1999/xlink" x="0px" y="0px"
	 width="864px" height="653px" viewBox="0 0 864 653" enable-background="new 0 0 864 653" xml:space="preserve">
<path fill="none" stroke="#000000" stroke-width="3" stroke-linecap="round" stroke-linejoin="round" stroke-miterlimit="10" d="
	M231,391c-1-9,8-35,12-43c2-6,10-25,13-30c23-32,124-20,164-18c32,1,77,8,80-34c0,32,10,96-3,123c-4,8-46,61-50,63c-5,4-12,0-18,3
	c-2,0-5,7-9,9c-5,2-33,10-39,11c-62,12-132-43-168-80c16,2,24-11,41-13c51-6,122,25,155-16"/>
<path fill="none" stroke="#000000" stroke-width="3" stroke-linecap="round" stroke-linejoin="round" stroke-miterlimit="10" d="
	M620,464c0-1-1-2-1-2"/>
<path fill="none" stroke="#000000" stroke-width="3" stroke-linecap="round" stroke-linejoin="round" stroke-miterlimit="10" d="
	M619,462c-2-6-3-11-3-14"/>
</svg>
